<?xml version="1.0" encoding="UTF-8"?>
<svg id="Capa_1" xmlns="http://www.w3.org/2000/svg" version="1.1" viewBox="0 0 705 601">
  <!-- Generator: Adobe Illustrator 30.1.0, SVG Export Plug-In . SVG Version: 2.1.1 Build 136)  -->
  <defs>
    <style>
      .st0 {
        fill: #fa4f2d;
      }
    </style>
  </defs>
  <path class="st0" d="M164.4,229.1c16.9,0,27-5.4,32.7-13.7v10c0,.8.8,1.5,1.6,1.5h18.8c1.1,0,1.6-.7,1.6-1.5v-59.5c0-1-.5-1.6-1.6-1.6h-51.2c-.8,0-1.6.7-1.6,1.6v18.3c0,.8.8,1.6,1.6,1.6h22.2c-3.1,12.3-11.6,18.5-23.7,18.5s-14.4-2.5-18.5-6.7c-1.2-1-1.6-1.3-2.9-1.3h-27.2c-1.5,0-2.3,1.4-1.8,2.6,7.2,16.8,22.4,30.3,49.9,30.3h0ZM125.4,187.8c7.4,0,13.4-5.9,13.4-13.1s-6.1-13.1-13.4-13.1-13.4,5.9-13.4,13.1,6.1,13.1,13.4,13.1ZM114.5,153.1h26.2c.8,0,1.6-.7,2-1.5,3.3-8.7,10.8-13.7,22.1-13.7s18.5,4.9,22.2,13.6c.5,1,1.1,1.3,2,1.3h26.3c1.1,0,2.1-1.1,1.6-2.3-5.1-19.8-20-37.5-52.2-37.5s-47,18-52.2,37.8c-.3,1.1.3,2.3,2,2.3h0ZM589.9,460.8h-43.5v-20.4h34.2c1,0,1.6-.7,1.6-1.6v-20.6c0-1.1-.7-1.6-1.6-1.6h-34.2v-19.1h42.9c1,0,1.6-.7,1.6-1.6v-20.6c0-1-.7-1.6-1.6-1.6h-69.7c-1,0-1.6.7-1.6,1.6v108c0,1,.7,1.6,1.6,1.6h70.3c1,0,1.6-.7,1.6-1.6v-20.6c0-1-.7-1.6-1.6-1.6v-.3ZM399.1,484.7h25.2c1,0,1.6-.7,1.6-1.6v-85.7h14.1c22.7,0,33.5,10.3,33.5,31.6s-10.8,31.9-33.5,31.9h-1.3c-1,0-1.6.7-1.6,1.6v20.6c0,1,.7,1.6,1.6,1.6h3.6c39.3,0,61.2-19.8,61.2-55.8s-21.9-55.5-61.2-55.5h-43.2c-1,0-1.6.7-1.6,1.6v108c0,1,.7,1.6,1.6,1.6h0ZM376.9,373.4h-25.2c-1,0-1.6.7-1.6,1.6v108c0,1,.7,1.6,1.6,1.6h25.2c1,0,1.6-.7,1.6-1.6v-108c0-1-.7-1.6-1.6-1.6ZM330.4,373.4h-25.2c-1,0-1.6.7-1.6,1.6v66.6c0,13.7-6.9,20.4-20.6,20.4s-20.6-6.9-20.6-20.4v-66.6c0-1-.7-1.6-1.6-1.6h-25.2c-1,0-1.6.7-1.6,1.6v68.4c0,29,17.7,43.5,49.1,43.5s49.1-14.6,49.1-43.5v-68.4c0-1-.7-1.6-1.6-1.6h-.2ZM164.4,487c16.9,0,27-5.4,32.7-13.7v10c0,.8.8,1.5,1.6,1.5h18.8c1.1,0,1.6-.7,1.6-1.5v-59.5c0-1-.5-1.6-1.6-1.6h-51.2c-.8,0-1.6.7-1.6,1.6v18.3c0,.8.8,1.6,1.6,1.6h22.2c-3.1,12.3-11.6,18.5-23.7,18.5s-14.4-2.5-18.5-6.7c-1.2-1-1.6-1.3-2.9-1.3h-27.2c-1.5,0-2.3,1.4-1.8,2.6,7.2,16.9,22.4,30.3,49.9,30.3h0ZM125.4,445.6c7.4,0,13.4-5.9,13.4-13.1s-6.1-13.1-13.4-13.1-13.4,5.9-13.4,13.1,6.1,13.1,13.4,13.1ZM114.5,410.9h26.2c.8,0,1.6-.7,2-1.5,3.3-8.7,10.8-13.7,22.1-13.7s18.5,4.9,22.2,13.6c.5,1,1.1,1.3,2,1.3h26.3c1.1,0,2.1-1.1,1.6-2.3-5.1-19.8-20-37.5-52.2-37.5s-47,18-52.2,37.8c-.3,1.1.3,2.3,2,2.3h0ZM568.6,351.8l-30.7-42.5c14.2-4.4,21.3-14.8,21.3-31.2s-15.4-33.9-40.6-33.9h-50.9c-1,0-1.6.7-1.6,1.6v108c0,1,.7,1.6,1.6,1.6h25.2c1,0,1.6-.7,1.6-1.6v-87h22.2c8.7,0,13.7,3.6,13.7,12.8s-5.7,12.4-13.7,12.4h-9.5c-1,0-1.6.7-1.6,1.6v16c0,.8.3,1.4.8,2.1l29.8,42.5c.5.8,1,1.1,2.3,1.1h28.5c2,0,2.6-2,1.5-3.6h0ZM446.6,244.2h-25.2c-1,0-1.6.7-1.6,1.6v66.6c0,13.7-6.9,20.4-20.6,20.4s-20.6-6.9-20.6-20.4v-66.6c0-1-.7-1.6-1.6-1.6h-25.2c-1,0-1.6.7-1.6,1.6v68.4c0,29,17.7,43.5,49.1,43.5s49.1-14.6,49.1-43.5v-68.4c0-1-.7-1.6-1.6-1.6h-.2ZM276.6,332.9c-17.2,0-29.1-13.4-29.1-33s11.9-33,29.1-33,29.1,13.4,29.1,33-11.9,33-29.1,33ZM276.6,357.7c35.3,0,59.2-23.4,59.2-57.9s-23.9-57.9-59.2-57.9-59.2,23.4-59.2,57.9,23.9,57.9,59.2,57.9ZM221.4,244.2h-28.1c-.8,0-1.6.5-2,1.1l-23.1,40.1-23.1-40.1c-.4-.6-1.1-1.1-2-1.1h-28.1c-1.3,0-2.2,1.3-1.5,2.5l40.4,66.7v40.4c0,1,.7,1.6,1.6,1.6h25.2c1,0,1.6-.7,1.6-1.6v-40.4l40.4-66.7c.7-1.1-.2-2.5-1.5-2.5h.2ZM376.9,149.6h-25.2c-1,0-1.6.7-1.6,1.6v73.9c0,1,.7,1.6,1.6,1.6h25.2c1,0,1.6-.7,1.6-1.6v-73.9c0-1-.7-1.6-1.6-1.6ZM408.9,115.6h-89.3c-1,0-1.6.7-1.6,1.6v20.6c0,1,.7,1.6,1.6,1.6h89.3c1,0,1.6-.7,1.6-1.6v-20.6c0-1-.7-1.6-1.6-1.6h0ZM306.8,203h-43.5v-20.4h34.2c1,0,1.6-.7,1.6-1.6v-20.6c0-1.1-.7-1.6-1.6-1.6h-34.2v-19.1h42.9c1,0,1.6-.7,1.6-1.6v-20.6c0-1-.7-1.6-1.6-1.6h-69.7c-1,0-1.6.7-1.6,1.6v108c0,1,.7,1.6,1.6,1.6h70.3c1,0,1.6-.7,1.6-1.6v-20.6c0-1-.7-1.6-1.6-1.6v-.3Z"/>
</svg>